PathFileType	4	(X/Y/Z)	C:/Users/beibeiliu/ov580/test_trc/User3\sequence.22_training_dense_right.trc
DataRate	CameraRate	NumFrames	NumMarkers	Units	OrigDataRate	OrigDataStartFrame	OrigNumFrames
120	120	12	19	mm	120	54	106
Frame#	Time	ThumbCMC			ThumbMCP			ThumbIP			ThumbTip			IndexMCP			IndexPIP			IndexTip			MiddleMCP			MiddlePIP			MiddleTip			RingMCP			RingPIP			RingTip			PinkyMCP			PinkyPIP			PinkyTip			BackHand1			BackHand2			BackHand3	
		X0	Y0	Z0	X1	Y1	Z1	X2	Y2	Z2	X3	Y3	Z3	X4	Y4	Z4	X5	Y5	Z5	X6	Y6	Z6	X7	Y7	Z7	X8	Y8	Z8	X9	Y9	Z9	X10	Y10	Z10	X11	Y11	Z11	X12	Y12	Z12	X13	Y13	Z13	X14	Y14	Z14	X15	Y15	Z15	X16	Y16	Z16	X17	Y17	Z17	X18	Y18	Z18	
53	0.441667	142.055	59.1801	15.3147	110.531	58.8277	5.8321	86.1425	47.7569	-1.72601	63.2309	35.3279	-9.90233	88.6039	16.4018	-16.1433	68.2851	15.7701	8.68386	92.1033	28.3962	28.5612	90.5342	1.11019	-4.71069	82.6751	7.85684	29.536	118.034	20.3253	34.0654	99.4243	-15.9463	8.76156	93.0831	-6.76811	35.6897	119.261	16.9668	42.7242	117.709	-31.9623	5.45278	96.1512	-39.4842	13.9297	73.6289	-35.9969	25.7006	159.21	-1.64082	-6.62246	182.052	11.1168	8.16737	158.792	36.0459	-8.64865	
54	0.45	156.459	59.5705	14.556	129.246	68.3746	4.02712	99.1498	66.3049	-7.68903	78.9964	64.8322	-10.8873	88.3057	35.3875	-15.2359	73.7844	48.9847	10.5005	100.424	53.546	25.6589	86.503	22.291	-2.00071	83.1782	36.5876	28.7472	119.387	40.0981	32.196	91.1259	8.45155	11.1142	87.7605	18.3983	38.1618	118.063	30.7487	44.7511	99.4533	-15.4771	10.3353	78.0177	-14.3452	15.5973	52.9344	-11.7224	22.8492	148.693	-0.616087	-2.13598	177.543	1.62209	15.0199	162.473	31.1121	-8.41593	
55	0.458333	164.246	63.684	13.6791	140.497	78.863	-1.175	116.372	88.5218	-10.7605	91.4608	89.402	-17.5458	96.3618	62.5212	-18.4567	84.3878	77.3578	6.2505	111.476	74.7069	21.7811	88.3762	48.1537	-4.25878	86.5103	65.6109	23.214	125.069	53.5059	29.2263	88.2056	30.93	10.0093	89.2326	53.1459	34.7186	121.022	46.8728	43.5563	91.3715	9.14878	10.6923	67.5793	13.6676	13.1368	48.1724	22.2638	10.1514	139.59	6.1231	0.503372	167.301	3.75918	20.0521	163.771	36.0459	-6.05189	
56	0.466667	169.593	67.7602	11.6072	151.797	89.3652	-4.50036	129.501	100.664	-18.2283	109.224	109.919	-25.9959	104.198	80.2853	-23.1314	97.7336	102.182	-3.69798	125.023	89.812	14.9078	93.6912	70.1142	-10.7814	92.2581	88.086	15.3573	126.942	70.3316	24.7237	90.0117	57.1045	2.21613	89.4726	73.92	29.9731	119.274	62.8412	38.6228	86.0865	34.105	4.19242	64.652	41.0396	4.39194	44.2452	52.2389	1.74866	132.397	16.8708	3.66855	156.044	9.04043	20.8742	160.574	37.2108	-3.71017	
57	0.475	174.438	65.1202	11.6939	161.045	87.1106	-11.2305	142.626	103.519	-29.7212	127.604	111.118	-35.6517	118.54	84.6818	-33.9854	109.828	108.72	-13.032	131.902	91.2405	6.8117	100.44	76.7579	-19.0966	103.503	98.872	6.32189	128.97	74.1439	19.0588	92.0124	64.8079	-5.66381	93.4136	86.3464	16.8855	123.575	73.0076	28.6705	82.9414	42.6691	-4.73693	71.0279	55.8681	-11.4181	50.1037	70.2626	-20.205	131.352	21.4749	0.435471	146.171	10.6927	21.3562	160.326	33.9637	-2.64459	
58	0.483333	174.504	51.404	11.5961	169.955	71.5732	-10.4334	159.987	86.0741	-34.2164	142.158	94.4184	-48.9868	129.056	67.938	-42.2567	124.506	98.8368	-29.3353	139.855	85.3003	-4.19705	110.899	64.3676	-31.2459	109.48	90.2217	-7.28317	136.279	65.5801	10.6234	100.94	58.6264	-20.317	98.1711	80.4099	2.77107	121.856	68.4355	19.7771	88.7414	35.1428	-13.7664	76.5449	48.042	-26.5685	62.2607	60.7062	-40.4221	127.605	11.517	4.80873	142.715	1.42993	30.5146	162.33	19.8941	3.07494	
59	0.491667	175.315	32.9227	17.2369	179.181	47.3266	-11.4985	167.501	53.133	-38.5885	160.764	61.6559	-56.8607	146.211	40.1982	-50.2182	136.94	70.5207	-46.5801	144.836	66.2288	-13.7247	122.272	42.9608	-42.4764	120.904	71.0953	-26.4926	137.206	53.0355	2.85418	106.873	36.5145	-31.9015	104.311	64.1855	-17.2862	121.678	53.587	8.75854	96.9638	14.7899	-20.727	88.041	24.1817	-39.388	82.7199	36.4819	-57.6897	128.092	-3.87832	2.86198	137.298	-10.3527	36.3184	162.471	-0.118548	11.8186	
60	0.5	181.583	20.9016	23.5111	182.014	24.5095	-6.5752	183.819	26.5074	-36.5893	180.473	29.452	-60.432	157.967	10.6632	-51.7529	154.444	43.8156	-53.4185	159.509	46.2279	-20.2453	139.9	11.8395	-46.4635	137.363	45.4636	-42.3276	143.164	32.4836	-1.42138	118.997	12.4527	-40.688	116.04	39.4989	-33.0216	128.198	35.8965	-1.46806	107.279	-7.30659	-24.7624	108.911	-1.3492	-49.1665	100.127	2.4438	-68.1956	132.072	-21.9426	9.62108	135.669	-20.0444	41.2681	165.903	-15.165	17.8886	
61	0.508333	186.459	14.7256	24.5092	195.983	19.3535	-2.70249	198.899	14.5224	-33.7869	193.5	11.2175	-54.0814	177.749	-6.80119	-43.9459	166.02	24.4176	-55.4829	170.291	34.4775	-25.9397	152.458	-5.76629	-43.3893	150.182	29.4716	-44.9868	154.871	25.5581	-6.02984	138.809	-6.9845	-40.1577	130.889	20.9211	-42.6615	136.172	25.6922	-8.2913	126.925	-23.4686	-27.2068	123.408	-22.5612	-45.9571	125.056	-21.2119	-73.8868	142.751	-29.8318	13.0585	142.115	-24.0425	44.3008	177.774	-18.3654	26.4275	
62	0.516667	195.738	21.4035	28.1282	203.98	23.063	-0.423336	211.063	15.9765	-32.1116	211.001	13.5679	-52.2671	192.854	-7.42454	-39.7051	180.408	17.945	-55.5237	179.168	32.9896	-23.2987	170.885	-7.85619	-46.3106	161.899	22.6902	-46.1617	161.065	20.817	-4.59327	154.298	-16.0736	-37.4448	145.425	15.3062	-41.8361	148.115	18.9624	-6.47583	143.347	-32.5838	-24.5051	147.314	-31.2869	-47.8636	149.941	-29.8615	-71.6121	161.689	-31.0678	19.1126	154.687	-24.5781	49.1316	189.003	-13.6278	29.2942	
63	0.525	202.544	33.7869	27.1827	211.557	36.3915	-0.642629	221.122	33.8086	-29.3714	223.151	29.2209	-53.8355	210.708	3.71636	-38.2374	194.151	30.5678	-53.3459	182.463	34.3837	-21.3952	191.135	-4.7064	-41.5832	173.054	20.1249	-47.2077	168.834	21.2339	-3.46041	176.598	-16.3865	-35.5047	157.472	6.76676	-41.9475	155.764	16.0506	-10.4902	170.93	-34.5508	-23.5618	175.07	-31.8492	-43.2605	176.554	-33.8352	-68.3481	187.257	-29.3737	18.7338	175.807	-19.7672	50.347	207.259	0.146206	31.6472	
64	0.533333	199.431	47.4898	31.6547	213.33	55.1263	-1.43392	220.204	57.1105	-27.3325	225.868	50.7436	-51.507	227.186	27.474	-36.2682	197.492	42.4886	-50.9784	185.639	41.7007	-20.5576	211.564	11.8287	-41.1393	181.992	23.6911	-45.827	177.795	28.7556	-6.44009	200.371	-6.62718	-36.0902	170.191	8.10388	-40.924	166.408	17.3352	-12.6548	202.645	-25.3903	-24.4163	204.958	-25.056	-47.2046	205.425	-26.9643	-69.5466	211.824	-17.5288	18.2501	198.408	-13.4965	49.2899	218.248	16.139	34.5013	
